<svg xmlns="http://www.w3.org/2000/svg" viewBox="0 0 186 20">
  <path fill="444" d="M97.984,88V70.96H95.728L89.536,82.024,83.368,70.96h-2.28V88h2.16V74.824l5.688,10.1H90.16l5.664-10.1V88h2.16Zm11.532-.288a6.232,6.232,0,0,0,3.3-3.48,6.777,6.777,0,0,0,.456-2.472,6.689,6.689,0,0,0-.468-2.5,6.545,6.545,0,0,0-1.3-2.064,6.272,6.272,0,0,0-9.12,0,6.545,6.545,0,0,0-1.3,2.064,6.689,6.689,0,0,0-.468,2.5,6.777,6.777,0,0,0,.456,2.472,6.366,6.366,0,0,0,1.284,2.064A6.42,6.42,0,0,0,109.516,87.712Zm-6.408-7.764A4.781,4.781,0,0,1,104,78.46a4.275,4.275,0,0,1,1.32-1.008,3.621,3.621,0,0,1,1.62-.372,3.72,3.72,0,0,1,1.62.36,4.25,4.25,0,0,1,1.332,1,4.661,4.661,0,0,1,.9,1.488,5.056,5.056,0,0,1,.324,1.812,5.12,5.12,0,0,1-.324,1.836,4.654,4.654,0,0,1-.9,1.488,4.246,4.246,0,0,1-1.332,1,3.825,3.825,0,0,1-3.24,0,4.188,4.188,0,0,1-1.32-.984,4.655,4.655,0,0,1-.888-1.464,5.025,5.025,0,0,1-.324-1.824A5.123,5.123,0,0,1,103.108,79.948Zm16.764-6.924V70.576H118.1v2.448h1.776Zm3.888,0V70.576h-1.776v2.448h1.776ZM122.8,88a6.431,6.431,0,0,0,1.572-.66,5.644,5.644,0,0,0,1.248-1,4.6,4.6,0,0,0,.852-1.272l-1.824-.5a2.641,2.641,0,0,1-.564.864,3.576,3.576,0,0,1-.852.648,4.875,4.875,0,0,1-1.032.42,4.12,4.12,0,0,1-1.128.156,3.905,3.905,0,0,1-1.548-.312,4.319,4.319,0,0,1-1.308-.864,4.379,4.379,0,0,1-.936-1.32,4.858,4.858,0,0,1-.432-1.7H127.24a2.528,2.528,0,0,0,.036-0.336q0.012-.216.012-0.48a6.714,6.714,0,0,0-.444-2.412,6.206,6.206,0,0,0-1.26-2.04,6.142,6.142,0,0,0-4.56-1.932,6.383,6.383,0,0,0-2.592.516,6.244,6.244,0,0,0-3.348,3.468,6.689,6.689,0,0,0-.468,2.5,6.78,6.78,0,0,0,.468,2.508,6.4,6.4,0,0,0,1.308,2.076,6.127,6.127,0,0,0,2.016,1.4A6.383,6.383,0,0,0,121,88.24,6.706,6.706,0,0,0,122.8,88Zm-6-7.1a4.721,4.721,0,0,1,.42-1.632,4.254,4.254,0,0,1,.912-1.284,4.08,4.08,0,0,1,1.308-.84,4.255,4.255,0,0,1,4.476.828,4.4,4.4,0,0,1,.936,1.284A4.515,4.515,0,0,1,125.3,80.9h-8.5Zm18.468,1.668a9.167,9.167,0,0,0,1.656,2.808,8.58,8.58,0,0,0,2.532,2,6.813,6.813,0,0,0,3.216.768,8.122,8.122,0,0,0,2.016-.264,8.428,8.428,0,0,0,1.956-.768,7.206,7.206,0,0,0,1.656-1.236,5.3,5.3,0,0,0,1.14-1.692l-1.8-.984a4.566,4.566,0,0,1-.924,1.356,5.784,5.784,0,0,1-1.212.936,5.044,5.044,0,0,1-1.356.54,5.962,5.962,0,0,1-1.38.168,5.089,5.089,0,0,1-2.352-.552,6.018,6.018,0,0,1-1.872-1.488,7.043,7.043,0,0,1-1.236-2.148,7.37,7.37,0,0,1-.444-2.556,7.952,7.952,0,0,1,.372-2.388,6.644,6.644,0,0,1,1.116-2.136,5.8,5.8,0,0,1,1.836-1.536,5.208,5.208,0,0,1,2.508-.588,6.289,6.289,0,0,1,1.32.144,5.065,5.065,0,0,1,1.308.48,4.753,4.753,0,0,1,1.176.888,4.951,4.951,0,0,1,.924,1.368l1.7-1.1A6.418,6.418,0,0,0,146.7,71.9a7.171,7.171,0,0,0-3.912-1.032,7.675,7.675,0,0,0-3.432.744,7.98,7.98,0,0,0-2.556,1.956A8.511,8.511,0,0,0,135.22,76.3,8.982,8.982,0,0,0,135.268,82.564Zm18.3-7.092H151.5V88h2.064V82.432H159.9V88h2.064V75.472H159.9V80.68h-6.336V75.472Zm17.844,12.18a5.418,5.418,0,0,0,2.124-1.716l0.048,0.888a1.531,1.531,0,0,0,.444.9,1.345,1.345,0,0,0,1,.372,4.183,4.183,0,0,0,.456-0.024q0.216-.024.552-0.072V86.176a0.653,0.653,0,0,1-.672-0.768V80.3a4.9,4.9,0,0,0-1.38-3.72,5.347,5.347,0,0,0-3.852-1.32,8.664,8.664,0,0,0-4.872,1.632l0.7,1.368a7.009,7.009,0,0,1,3.984-1.464,3.02,3.02,0,0,1,3.312,3.288v1.008a8.531,8.531,0,0,0-1.656-.456,10.464,10.464,0,0,0-1.848-.168,7.451,7.451,0,0,0-2.124.288,5.631,5.631,0,0,0-1.68.792,3.575,3.575,0,0,0-1.092,1.212,3.244,3.244,0,0,0-.384,1.572,3.674,3.674,0,0,0,.324,1.548,3.9,3.9,0,0,0,.888,1.236,4.115,4.115,0,0,0,1.332.828,4.513,4.513,0,0,0,1.656.3A6.523,6.523,0,0,0,171.412,87.652Zm-3.276-1.188a2.749,2.749,0,0,1-.876-0.528,2.347,2.347,0,0,1-.576-0.792,2.38,2.38,0,0,1-.2-0.984,2.034,2.034,0,0,1,1-1.752,4.528,4.528,0,0,1,2.58-.672,8.7,8.7,0,0,1,3.192.6v1.848a1.332,1.332,0,0,1-.456.936,3.457,3.457,0,0,1-1.476,1.116,5.235,5.235,0,0,1-2.1.42A3,3,0,0,1,168.136,86.464Zm20.592-14.52-0.384-1.728-3.96.96a7.925,7.925,0,0,0-4.716,3.012,10.339,10.339,0,0,0-1.62,6.156,9.811,9.811,0,0,0,1.488,5.88A5.088,5.088,0,0,0,183.9,88.24a6.668,6.668,0,0,0,2.484-.444,5.438,5.438,0,0,0,3.144-3.144,6.6,6.6,0,0,0,.444-2.46,7.063,7.063,0,0,0-.42-2.46,6.172,6.172,0,0,0-1.164-1.98,5.229,5.229,0,0,0-3.984-1.776,5.332,5.332,0,0,0-2.328.516,5.688,5.688,0,0,0-1.92,1.524,6.29,6.29,0,0,1,1.416-3.384,5.873,5.873,0,0,1,2.952-1.656Zm-8.244,8.412a4.13,4.13,0,0,1,.756-1.308A3.257,3.257,0,0,1,182.4,78.2a3.756,3.756,0,0,1,1.524-.3,3.945,3.945,0,0,1,1.584.312,3.4,3.4,0,0,1,1.224.888,4.243,4.243,0,0,1,.792,1.38,5.547,5.547,0,0,1,.012,3.492,4.075,4.075,0,0,1-.768,1.356,3.4,3.4,0,0,1-1.188.876,3.652,3.652,0,0,1-1.512.312,3.561,3.561,0,0,1-1.548-.336,3.676,3.676,0,0,1-1.224-.936,4.379,4.379,0,0,1-.8-1.416,5.3,5.3,0,0,1-.288-1.776A4.906,4.906,0,0,1,180.484,80.356Zm10.572-4.884,3.648,6.1L190.72,88h2.352l3.1-5.376h2.352V88h2.112V82.624h2.352L206.08,88h2.352l-4.008-6.432,3.648-6.1h-2.328l-3.12,5.568h-1.992V75.472H198.52V81.04h-1.992l-3.12-5.568h-2.352ZM217.193,88a6.431,6.431,0,0,0,1.572-.66,5.668,5.668,0,0,0,1.248-1,4.6,4.6,0,0,0,.852-1.272l-1.824-.5a2.657,2.657,0,0,1-.564.864,3.6,3.6,0,0,1-.852.648,4.9,4.9,0,0,1-1.032.42,4.126,4.126,0,0,1-1.128.156,3.905,3.905,0,0,1-1.548-.312,4.307,4.307,0,0,1-1.308-.864,4.379,4.379,0,0,1-.936-1.32,4.858,4.858,0,0,1-.432-1.7h10.392a2.919,2.919,0,0,0,.036-0.336q0.012-.216.012-0.48a6.714,6.714,0,0,0-.444-2.412,6.24,6.24,0,0,0-1.26-2.04,6.142,6.142,0,0,0-4.56-1.932,6.376,6.376,0,0,0-2.592.516,6.262,6.262,0,0,0-2.028,1.4,6.334,6.334,0,0,0-1.32,2.064,6.689,6.689,0,0,0-.468,2.5,6.78,6.78,0,0,0,.468,2.508,6.381,6.381,0,0,0,1.308,2.076,6.127,6.127,0,0,0,2.016,1.4,6.376,6.376,0,0,0,2.592.516A6.706,6.706,0,0,0,217.193,88Zm-6-7.1a4.721,4.721,0,0,1,.42-1.632,4.236,4.236,0,0,1,.912-1.284,4.069,4.069,0,0,1,1.308-.84,4.255,4.255,0,0,1,4.476.828,4.433,4.433,0,0,1,.936,1.284,4.515,4.515,0,0,1,.444,1.644h-8.5Zm14.76-5.424h-2.064V88h2.064V82.432h6.336V88h2.064V75.472h-2.064V80.68h-6.336V75.472Zm13.992,0h-2.064V88h1.824l6.7-9.36V88h2.064V75.472h-1.7l-6.816,9.552V75.472ZM259.169,88a6.431,6.431,0,0,0,1.572-.66,5.668,5.668,0,0,0,1.248-1,4.6,4.6,0,0,0,.852-1.272l-1.824-.5a2.657,2.657,0,0,1-.564.864,3.6,3.6,0,0,1-.852.648,4.9,4.9,0,0,1-1.032.42,4.126,4.126,0,0,1-1.128.156,3.905,3.905,0,0,1-1.548-.312,4.307,4.307,0,0,1-1.308-.864,4.379,4.379,0,0,1-.936-1.32,4.858,4.858,0,0,1-.432-1.7h10.392a2.919,2.919,0,0,0,.036-0.336q0.012-.216.012-0.48a6.714,6.714,0,0,0-.444-2.412,6.24,6.24,0,0,0-1.26-2.04,6.142,6.142,0,0,0-4.56-1.932,6.376,6.376,0,0,0-2.592.516,6.262,6.262,0,0,0-2.028,1.4,6.334,6.334,0,0,0-1.32,2.064,6.689,6.689,0,0,0-.468,2.5,6.78,6.78,0,0,0,.468,2.508,6.381,6.381,0,0,0,1.308,2.076,6.127,6.127,0,0,0,2.016,1.4,6.376,6.376,0,0,0,2.592.516A6.706,6.706,0,0,0,259.169,88Zm-6-7.1a4.721,4.721,0,0,1,.42-1.632,4.236,4.236,0,0,1,.912-1.284,4.069,4.069,0,0,1,1.308-.84,4.255,4.255,0,0,1,4.476.828,4.433,4.433,0,0,1,.936,1.284,4.515,4.515,0,0,1,.444,1.644h-8.5Z">
</svg>
